<svg xmlns="http://www.w3.org/2000/svg" id="plumbing-tools" viewBox="0 0 64 64">
  <path d="M21.2851562,54.1914062c-.2148438,0-.4257812-.0693359-.6000977-.2001953l-4-3c-.4121094-.3085938-.5219727-.8808594-.253418-1.3212891l17-27.8505859c.2626953-.4296875.8066406-.6005859,1.2685547-.3876953l15,6.8505859c.2470703.1123047.4375.3203125.5283203.5761719.0898438.2558594.0722656.5371094-.0488281.7802734l-3,6c-.2402344.4794922-.8144531.6884766-1.3085938.4628906l-10.1923828-4.6328125-13.5395508,22.2421875c-.1464844.2412109-.3881836.4091797-.6650391.4628906-.0625.0117188-.1259766.0175781-.1889648.0175781ZM18.6123047,49.9365234l2.3916016,1.7939453,13.4267578-22.0585938c.2626953-.4316406.8066406-.5996094,1.2685547-.390625l10.1220703,4.6005859,2.1064453-4.2109375-13.2509766-6.0517578-16.0644531,26.3173828Z" style="fill:#000;stroke-width:0"></path>
  <path d="M40.6308594,26.2392578c-.1386719,0-.2802734-.0292969-.4140625-.0898438l-9.2109375-4.2011719c-.2651367-.1210938-.4643555-.3525391-.5454102-.6328125-.0810547-.2792969-.0361328-.5810547.1240234-.8251953l1.8642578-2.8466797c.2719727-.4150391.8061523-.5664062,1.2573242-.359375l8.9365234,4.1494141c.2509766.1171875.4423828.3320312.5292969.5957031.0859375.2626953.0595703.5498047-.0732422.7919922l-1.5898438,2.8984375c-.1806641.3300781-.5224609.5195312-.8779297.5195312ZM32.8955078,20.6113281l7.3066406,3.3330078.6289062-1.1464844-7.1826172-3.3349609-.7529297,1.1484375Z" style="fill:#000;stroke-width:0"></path>
  <path d="M48.5859375 29.8720703c-.1464844 0-.2958984-.0322266-.4375-.1015625-.4960938-.2421875-.7021484-.8408203-.4599609-1.3369141l4.3955078-9.0107422c.4785101-.9814453.0742188-2.1767578-.9033203-2.6650391l-9.6865234-4.84375c-.4667969-.2314453-1.0390625-.0644531-1.3046875.3798828l-.9785156 1.6318359c-.1416016.2363281-.1796875.5107422-.1083984.7744141.0712891.2646484.2431641.4833984.4833984.6162109l9.0751953 4.9990234c.4824219.265625.6591797.8720703.3955078 1.3554688l-3.2744141 5.9990234c-.2646484.4833984-.8720703.6630859-1.3574219.3984375-.484375-.2646484-.6630859-.8720703-.3984375-1.3574219l2.796875-5.1240234-8.2021484-4.5185547c-.7207031-.3974609-1.2353516-1.0527344-1.4501953-1.8476562-.2138672-.7939453-.0976562-1.6191406.3251953-2.3232422l.9785156-1.6318359c.8027344-1.3369141 2.5214844-1.8359375 3.9140625-1.140625l9.6865234 4.84375c1.9541016.9765625 2.7636719 3.3681641 1.8056641 5.3310547l-4.3955078 9.0107422c-.1728571.3554688-.5292969.5615234-.8994141.5615234ZM41.6318359 38.8867188c-.7636719 0-1.5390625-.1738281-2.2685547-.5380859l-2.5253906-1.2626953c-.2412109-.1201172-.4228516-.3330078-.5048828-.5898438-.0820312-.2558594-.0576172-.5351562.0683594-.7734375l2.1748047-4.1025391c.2587891-.4863281.8652344-.6738281 1.3525391-.4150391s.6738281.8642578.4150391 1.3525391l-1.6953125 3.1972656 1.609375.8046875c1.4697266.7353516 3.2490234.1894531 4.0517578-1.2470703l.4951172-.8857422c.2705078-.4814453.8789062-.6542969 1.3613281-.3847656.4814453.2695312.6542969.8789062.3847656 1.3613281l-.4951172.8857422c-.9277344 1.6572266-2.6445312 2.5976562-4.4238281 2.5976562ZM36.2636719 54.1914062c-.0830078 0-.1660156-.0107422-.2480469-.03125-.2724609-.0693359-.5029297-.2509766-.6347656-.5l-6.9814453-13.1386719c-.2587891-.4873047-.0737305-1.0927734.4140625-1.3515625.487793-.2617188 1.0932617-.0742188 1.3525391.4140625l6.4658203 12.1689453 2.2626953-1.4853516-8.3193359-13.1943359c-.2949219-.4667969-.1547852-1.0849609.3125-1.3789062.46875-.2939453 1.0849609-.1542969 1.3789062.3125l8.8427734 14.0244141c.2910156.4609375.1591797 1.0703125-.2968803 1.3691406l-3.9999999 2.6269531c-.1640573.1083984-.3554636.1640625-.548823.1640625ZM26.5673828 35.9863281c-.3320312 0-.6567383-.1650391-.847168-.4667969l-4.28125-6.7949219c-.2890625-.4589844-.159668-1.0644531.2915039-1.3652344l3-2c.2216797-.1484375.4941406-.2021484.7548828-.1474609.2612305.0527344.4902344.2089844.6367188.4316406l3.440918 5.2568359c.3022461.4619141.1728516 1.0820312-.2890625 1.3847656-.4614308.3027344-1.081543.1728516-1.3847656-.2890625l-2.8881836-4.4130859-1.3500977.8994141 3.7617188 5.9707031c.2944336.4677734.1542969 1.0849609-.3129883 1.3789062-.1655273.1044922-.3500977.1542969-.5322266.1542969Z" style="fill:#000;stroke-width:0"></path>
  <path d="M20.3081055,29.9287109c-.3071289,0-.6166992-.0234375-.9257812-.0722656-1.5737305-.2441406-2.9570312-1.0878906-3.8950195-2.3759766l-1.3139648-1.5927734c-.3510742-.4267578-.2900391-1.0566406.1362305-1.4082031.4277344-.3505859,1.0571289-.2900391,1.4077148.1367188l1.3500977,1.6396484c.6591797.9023438,1.5776367,1.4619141,2.6220703,1.625,1.0419922.1582031,2.0839844-.0917969,2.9345703-.7158203l1.6928711-1.2324219c.8510742-.6230469,1.4101562-1.5429688,1.5712891-2.5878906.1616211-1.0439453-.09375-2.0888672-.7192383-2.9423828l-1.4667969-1.7871094c-.3500977-.4267578-.2875977-1.0566406.1396484-1.4072266.4277344-.3486328,1.0571289-.2871094,1.4072266.1396484l1.5,1.8300781c.9741211,1.3271484,1.3588867,2.9003906,1.1157227,4.4726562s-1.0839844,2.9560547-2.3686523,3.8974609l-1.6923828,1.2324219c-1.0273438.7529297-2.2431641,1.1484375-3.4956055,1.1484375Z" style="fill:#000;stroke-width:0"></path>
  <path d="M13.1401367,27.6357422c-.0444336,0-.0888672-.0029297-.1328125-.0087891-.2631836-.0351562-.5009766-.1738281-.6621094-.3847656l-2.4272461-3.1796875c-.3349609-.4384766-.2509766-1.0664062.1879883-1.4013672l12.7177734-9.7089844c.2114258-.1601562.4804688-.2294922.7397461-.1962891.2631836.0351562.5009766.1738281.6621094.3847656l2.4272461,3.1796875c.3349609.4384766.2509766,1.0664062-.1879883,1.4013672l-12.7177734,9.7089844c-.175293.1337891-.3886719.2050781-.6069336.2050781ZM12.1147461,23.6445312l1.2133789,1.5898438,11.1279297-8.4960938-1.2133789-1.5898438-11.1279297,8.4960938Z" style="fill:#000;stroke-width:0"></path>
</svg>
